<svg width="181" height="180" viewBox="0 0 181 180" fill="none" xmlns="http://www.w3.org/2000/svg">
<path d="M90.5 165C131.921 165 165.5 131.421 165.5 90C165.5 48.5786 131.921 15 90.5 15C49.0786 15 15.5 48.5786 15.5 90C15.5 131.421 49.0786 165 90.5 165Z" fill="#32B141"/>
<path d="M56.75 90L79.25 112.5L124.25 67.5M165.5 90C165.5 131.421 131.921 165 90.5 165C49.0786 165 15.5 131.421 15.5 90C15.5 48.5786 49.0786 15 90.5 15C131.921 15 165.5 48.5786 165.5 90Z" stroke="white" stroke-width="12" stroke-linecap="round" stroke-linejoin="round"/>
</svg>
